<svg width="20" height="20" viewBox="0 0 20 20" fill="none" xmlns="http://www.w3.org/2000/svg">
<path d="M13.8751 10.8334L10.3751 18.3334C9.67896 18.3334 9.01128 18.07 8.51899 17.6011C8.02671 17.1323 7.75015 16.4964 7.75015 15.8334V12.5H2.79765C2.54398 12.5028 2.29272 12.4529 2.06127 12.354C1.82983 12.2551 1.62374 12.1094 1.45727 11.9271C1.29081 11.7448 1.16796 11.5302 1.09723 11.2981C1.0265 11.0661 1.00958 10.8222 1.04765 10.5834L2.25515 3.08335C2.31843 2.68593 2.53039 2.32368 2.85198 2.06334C3.17357 1.80301 3.58311 1.66214 4.00515 1.66668H13.8751M13.8751 10.8334V1.66668M13.8751 10.8334H16.2114C16.7066 10.8417 17.1878 10.6766 17.5636 10.3693C17.9395 10.0621 18.1838 9.63413 18.2501 9.16668V3.33335C18.1838 2.8659 17.9395 2.43793 17.5636 2.1307C17.1878 1.82346 16.7066 1.65834 16.2114 1.66668H13.8751" stroke="#4680FF" stroke-width="2" stroke-linecap="round" stroke-linejoin="round"/>
</svg>
