<svg width="39" height="38" viewBox="0 0 39 38" fill="none" xmlns="http://www.w3.org/2000/svg">
<path d="M15.3334 24.25V31.25C15.3334 32.6424 15.9129 33.9778 16.9443 34.9623C17.9758 35.9469 19.3747 36.5 20.8334 36.5L28.1667 20.75V1.50002H7.48672C6.60245 1.49048 5.74436 1.78631 5.07056 2.33301C4.39676 2.87971 3.95265 3.64044 3.82006 4.47502L1.29006 20.225C1.21029 20.7267 1.24574 21.2388 1.39393 21.7261C1.54213 22.2133 1.79954 22.664 2.14832 23.0469C2.4971 23.4297 2.92891 23.7356 3.41384 23.9434C3.89877 24.1511 4.42523 24.2558 4.95672 24.25H15.3334ZM28.1667 1.50002H33.0617C34.0993 1.48251 35.1075 1.82926 35.895 2.47445C36.6824 3.11965 37.1943 4.01838 37.3334 5.00002V17.25C37.1943 18.2317 36.6824 19.1304 35.895 19.7756C35.1075 20.4208 34.0993 20.7675 33.0617 20.75H28.1667" fill="#4680FF"/>
<path d="M28.1667 20.75L20.8334 36.5C19.3747 36.5 17.9758 35.9469 16.9443 34.9623C15.9129 33.9778 15.3334 32.6424 15.3334 31.25V24.25H4.95672C4.42523 24.2558 3.89877 24.1511 3.41384 23.9434C2.92891 23.7356 2.4971 23.4297 2.14832 23.0469C1.79954 22.664 1.54213 22.2133 1.39393 21.7261C1.24574 21.2388 1.21029 20.7267 1.29006 20.225L3.82006 4.47502C3.95265 3.64044 4.39676 2.87971 5.07056 2.33301C5.74436 1.78631 6.60245 1.49048 7.48672 1.50002H28.1667M28.1667 20.75V1.50002M28.1667 20.75H33.0617C34.0993 20.7675 35.1075 20.4208 35.895 19.7756C36.6824 19.1304 37.1943 18.2317 37.3334 17.25V5.00002C37.1943 4.01838 36.6824 3.11965 35.895 2.47445C35.1075 1.82926 34.0993 1.48251 33.0617 1.50002H28.1667" stroke="white" stroke-width="2" stroke-linecap="round" stroke-linejoin="round"/>
</svg>
