<svg width="39" height="38" viewBox="0 0 39 38" fill="none" xmlns="http://www.w3.org/2000/svg">
<path d="M23.2486 13.7494V6.74936C23.2486 5.35698 22.6692 4.02162 21.6377 3.03705C20.6063 2.05249 19.2073 1.49936 17.7486 1.49936L10.4153 17.2494L10.4153 36.4994H31.0953C31.9796 36.5089 32.8377 36.2131 33.5115 35.6664C34.1853 35.1197 34.6294 34.359 34.762 33.5244L37.292 17.7744C37.3717 17.2727 37.3363 16.7606 37.1881 16.2733C37.0399 15.7861 36.7825 15.3354 36.4337 14.9525C36.0849 14.5696 35.6531 14.2637 35.1682 14.056C34.6833 13.8482 34.1568 13.7436 33.6253 13.7494H23.2486ZM10.4153 36.4994L5.52031 36.4994C4.48271 36.5169 3.47449 36.1701 2.68705 35.5249C1.8996 34.8797 1.38774 33.981 1.24864 32.9994V20.7494C1.38774 19.7677 1.8996 18.869 2.68705 18.2238C3.47449 17.5786 4.48271 17.2318 5.52031 17.2494H10.4153" fill="#4680FF"/>
<path d="M10.4153 17.2494L17.7486 1.49936C19.2073 1.49936 20.6063 2.05249 21.6377 3.03705C22.6692 4.02162 23.2486 5.35698 23.2486 6.74936V13.7494H33.6253C34.1568 13.7436 34.6833 13.8482 35.1682 14.056C35.6531 14.2637 36.0849 14.5696 36.4337 14.9525C36.7825 15.3354 37.0399 15.7861 37.1881 16.2733C37.3363 16.7606 37.3717 17.2727 37.292 17.7744L34.762 33.5244C34.6294 34.359 34.1853 35.1197 33.5115 35.6664C32.8377 36.2131 31.9796 36.5089 31.0953 36.4994L10.4153 36.4994M10.4153 17.2494L10.4153 36.4994M10.4153 17.2494H5.52031C4.48271 17.2318 3.47449 17.5786 2.68705 18.2238C1.8996 18.869 1.38774 19.7677 1.24864 20.7494V32.9994C1.38774 33.981 1.8996 34.8797 2.68705 35.5249C3.47449 36.1701 4.48271 36.5169 5.52031 36.4994H10.4153" stroke="white" stroke-width="2" stroke-linecap="round" stroke-linejoin="round"/>
</svg>
