<svg width="37" height="38" viewBox="0 0 37 38" fill="none" xmlns="http://www.w3.org/2000/svg">
<g clip-path="url(#clip0_1319_347)">
<path d="M18.5282 37.05C28.4993 37.05 36.5782 28.9711 36.5782 19C36.5782 9.02883 28.4993 0.949951 18.5282 0.949951C8.55703 0.949951 0.478149 9.02883 0.478149 19C0.478149 28.9711 8.55703 37.05 18.5282 37.05ZM8.73753 18.6089L26.1407 11.8988C26.9485 11.607 27.6539 12.0958 27.3922 13.3172L27.3937 13.3157L24.4305 27.2759C24.2109 28.2656 23.6228 28.5063 22.8 28.04L18.2875 24.7143L16.111 26.8111C15.8703 27.0518 15.6672 27.2548 15.2009 27.2548L15.5213 22.6626L23.3234 14.9252C23.8033 14.6063 23.6874 14.6048 23.3234 14.9252L12.9883 21.4322L8.53296 20.0423C7.56578 19.7355 7.54473 19.0752 8.73753 18.6089Z" fill="#333333"/>
</g>
<defs>
<clipPath id="clip0_1319_347">
<rect width="36.1" height="36.1" fill="white" transform="translate(0.478149 0.949951)"/>
</clipPath>
</defs>
</svg>
