<svg width="35" height="35" viewBox="0 0 35 35" fill="none" xmlns="http://www.w3.org/2000/svg">
<g clip-path="url(#clip0_1319_351)">
<path d="M32.8964 8.55869C32.288 6.43836 31.083 4.76353 29.3188 3.57906C27.091 2.07909 24.5291 1.55072 22.317 1.22685C19.2558 0.781347 16.4844 0.719007 13.8399 1.03375C11.3629 1.33025 9.49815 1.80312 7.79775 2.56565C4.46237 4.06334 2.46053 6.48321 1.84907 9.75836C1.56938 11.2148 1.364 12.6839 1.23371 14.1602C0.966542 17.3312 1.21035 20.138 1.97681 22.7396C2.72458 25.2758 4.03085 27.0867 5.96882 28.278C6.46188 28.5806 7.09437 28.8003 7.70583 29.0117C8.05324 29.1303 8.39129 29.2458 8.66781 29.3735C8.9233 29.4899 8.9233 29.5104 8.92018 29.7179C8.89915 31.5205 8.92018 35.0549 8.92018 35.0549L8.92641 35.809H10.3137L10.5396 35.5954C10.6876 35.4586 14.1265 32.2153 15.3526 30.9092L15.52 30.7275C15.7304 30.4903 15.7304 30.4903 15.9461 30.4873C17.6013 30.4546 19.2924 30.3923 20.9725 30.3033C23.0079 30.1969 25.3657 30.003 27.5872 29.1006C29.6202 28.2719 31.1041 26.9567 31.9959 25.1929C32.9268 23.3508 33.4775 21.3582 33.6847 19.0988C34.05 15.125 33.7914 11.6772 32.8964 8.55869ZM25.576 24.01C25.065 24.8212 24.304 25.386 23.4067 25.751C22.7493 26.0178 22.0802 25.9615 21.4321 25.6939C16.0069 23.452 11.75 19.9214 8.9381 14.8429C8.35702 13.7976 7.95587 12.6572 7.49319 11.5525C7.39894 11.3268 7.40517 11.0591 7.36233 10.8098C7.40127 9.02548 8.8049 8.01815 10.2226 7.71557C10.7639 7.59698 11.2445 7.784 11.6464 8.16108C12.7488 9.18749 13.649 10.4024 14.3026 11.7457C14.5916 12.3364 14.4607 12.8594 13.9676 13.2988C13.8648 13.3901 13.7573 13.4737 13.6452 13.5573C12.5196 14.3822 12.3553 15.0094 12.955 16.2532C13.977 18.3705 15.6751 19.7936 17.8685 20.6755C18.4465 20.9066 18.9917 20.7911 19.4326 20.3334C19.4934 20.2741 19.5604 20.2148 19.6032 20.1434C20.4678 18.7361 21.7242 18.876 22.8825 19.6773C23.6435 20.2065 24.3835 20.7645 25.1344 21.302C26.2817 22.1246 26.2724 22.897 25.576 24.01ZM18.3803 9.96059C18.124 9.96059 17.8685 9.98112 17.6169 10.0229C17.516 10.0393 17.4128 10.0361 17.3131 10.0136C17.2135 9.99099 17.1194 9.94949 17.0362 9.89143C16.9529 9.83336 16.8823 9.75987 16.8281 9.67514C16.774 9.59041 16.7375 9.49611 16.7208 9.39762C16.704 9.29914 16.7073 9.19839 16.7304 9.10113C16.7535 9.00387 16.796 8.91201 16.8555 8.83079C16.915 8.74957 16.9903 8.68058 17.0771 8.62776C17.1639 8.57494 17.2605 8.53933 17.3614 8.52296C17.6956 8.4667 18.0391 8.44009 18.3803 8.44009C21.7546 8.44009 24.4988 11.1184 24.4988 14.4118C24.4988 14.7479 24.4715 15.0831 24.4131 15.4078C24.3747 15.6027 24.2598 15.7752 24.0928 15.8885C23.9259 16.0018 23.7201 16.0469 23.5196 16.0141C23.319 15.9814 23.1396 15.8734 23.0195 15.7132C22.8994 15.553 22.8483 15.3534 22.877 15.1569C22.9867 14.5186 22.9527 13.8646 22.7773 13.2404C22.602 12.6162 22.2895 12.0368 21.8616 11.5423C21.4337 11.0479 20.9007 10.6502 20.2995 10.3771C19.6983 10.104 19.0434 9.96183 18.3803 9.96059ZM22.162 14.5221C22.162 14.9402 21.8115 15.2823 21.383 15.2823C20.9546 15.2823 20.6041 14.9402 20.6041 14.5221C20.6041 13.2662 19.5541 12.2413 18.2673 12.2413C17.8389 12.2413 17.4884 11.8992 17.4884 11.4811C17.4884 11.0629 17.8389 10.7208 18.2673 10.7208C20.4156 10.7208 22.162 12.4253 22.162 14.5221ZM26.6097 16.2121C26.5636 16.4089 26.4393 16.5798 26.2642 16.6871C26.089 16.7945 25.8773 16.8295 25.6757 16.7846C25.4741 16.7396 25.299 16.6183 25.189 16.4474C25.079 16.2764 25.0431 16.0698 25.0892 15.873C25.2026 15.3841 25.2598 14.8843 25.2598 14.383C25.2598 10.6881 22.1776 7.67984 18.392 7.67984C17.8747 7.67984 17.3607 7.7361 16.8653 7.84634C16.7655 7.86879 16.6622 7.87175 16.5613 7.85505C16.4603 7.83835 16.3638 7.80232 16.2772 7.74904C16.1906 7.69575 16.1156 7.62627 16.0567 7.54458C15.9977 7.4629 15.9559 7.37064 15.9337 7.27311C15.9108 7.1758 15.9078 7.07504 15.925 6.97661C15.9422 6.87819 15.9791 6.78405 16.0337 6.69961C16.0883 6.61518 16.1594 6.54211 16.243 6.48462C16.3267 6.42712 16.4211 6.38634 16.521 6.36461C17.1293 6.22777 17.7595 6.15935 18.392 6.15935C23.0383 6.15935 26.8176 9.84807 26.8176 14.3822C26.8176 15.0003 26.7475 15.6153 26.6104 16.2121H26.6097Z" fill="#333333"/>
</g>
<defs>
<clipPath id="clip0_1319_351">
<rect width="33.8438" height="33.8438" fill="white" transform="translate(0.678162 0.949951)"/>
</clipPath>
</defs>
</svg>
