<svg width="37" height="38" viewBox="0 0 37 38" fill="none" xmlns="http://www.w3.org/2000/svg">
<g clip-path="url(#clip0_1319_349)">
<path d="M30.8915 6.1222C27.5935 2.71616 23.2078 0.838963 18.5353 0.837158C8.90707 0.837158 1.07123 8.92175 1.06774 18.8601C1.06599 22.0369 1.87038 25.1379 3.39873 27.8706L1.02927 36.9372L10.1801 34.7044C12.7314 36.1412 15.6028 36.8975 18.5266 36.8993H18.5336C28.1601 36.8993 35.9959 28.8129 36.0011 18.8763C36.0046 14.0588 34.1895 9.53004 30.8915 6.1222ZM27.0811 25.3021C26.7174 26.3544 24.9355 27.3689 24.1346 27.4429C23.3337 27.5187 22.5835 27.8165 18.8973 26.3165C14.4609 24.5115 11.6595 19.8167 11.4427 19.5171C11.2241 19.2157 9.66076 17.0749 9.66076 14.8584C9.66076 12.6419 10.7887 11.5516 11.1891 11.1022C11.5896 10.6509 12.0617 10.539 12.3537 10.539C12.644 10.539 12.936 10.539 13.1896 10.5499C13.5009 10.5625 13.8454 10.5787 14.1724 11.3278C14.5606 12.2195 15.4087 14.4469 15.5171 14.6725C15.6255 14.8981 15.699 15.1616 15.5538 15.4613C15.4087 15.7609 15.3352 15.9486 15.1184 16.2122C14.8998 16.4757 14.6602 16.7988 14.4644 17.0009C14.2458 17.2248 14.0185 17.4702 14.272 17.9197C14.5273 18.3709 15.4017 19.8456 16.6992 21.0387C18.3674 22.573 19.7716 23.0477 20.2088 23.2751C20.646 23.5007 20.8995 23.4628 21.1548 23.1614C21.4101 22.8618 22.246 21.8474 22.5363 21.3961C22.8266 20.9449 23.1186 21.0207 23.5191 21.1705C23.9195 21.3203 26.0651 22.4105 26.5006 22.6361C26.9377 22.8618 27.228 22.9737 27.3364 23.1614C27.4448 23.3473 27.4448 24.2498 27.0811 25.3021Z" fill="#333333"/>
</g>
<defs>
<clipPath id="clip0_1319_349">
<rect width="36.1" height="36.1" fill="white" transform="translate(0.578156 0.949951)"/>
</clipPath>
</defs>
</svg>
