<svg width="125" height="86" viewBox="0 0 125 86" fill="none" xmlns="http://www.w3.org/2000/svg">
<g clip-path="url(#clip0_101_558)">
<path d="M17.4468 16.6291H17.254V14.2296C17.254 14.0666 17.1866 13.9827 17.042 13.9827H8.71362C7.74969 13.9827 7.08458 14.1851 6.68937 14.5949C6.29415 15.0047 6.10619 15.7552 6.10619 16.8513V19.8434C6.10619 20.905 6.29897 21.6505 6.67973 22.085C7.06048 22.5195 7.72559 22.7121 8.71362 22.7121H21.7556V27.3483H8.28467C7.16313 27.3785 6.04485 27.2115 4.97839 26.8545C4.14565 26.5668 3.39212 26.0792 2.78063 25.4326C2.20856 24.7991 1.79075 24.0361 1.56126 23.2058C1.29465 22.2542 1.16477 21.2679 1.17568 20.2779V16.6045C1.16477 15.6145 1.29465 14.6282 1.56126 13.6766C1.79005 12.8445 2.2079 12.0797 2.78063 11.4449C3.39212 10.7982 4.14565 10.3107 4.97839 10.0229C6.04485 9.66598 7.16313 9.49898 8.28467 9.52914H21.3218C21.4179 9.51729 21.5153 9.52839 21.6064 9.56157C21.6976 9.59474 21.78 9.64908 21.8472 9.72034C21.9145 9.7916 21.9647 9.87784 21.9939 9.97231C22.0232 10.0668 22.0307 10.1669 22.0159 10.2648V14.9011L17.4468 16.6291Z" fill="#333333"/>
<path d="M29.0524 16.6292H28.8837V27.3681H23.958V9.51929H28.8837V16.1404H40.4991V9.51929H45.4681V27.3681H40.4991V20.505H30.5127L29.0524 16.6292Z" fill="#333333"/>
<path d="M52.7893 17.0489H52.6206V22.3912C52.614 22.4379 52.6182 22.4856 52.6328 22.5304C52.6475 22.5752 52.6723 22.6158 52.7051 22.649C52.738 22.6821 52.778 22.7069 52.8219 22.7213C52.8658 22.7357 52.9124 22.7393 52.958 22.7319H67.6482V27.3681H48.3697C48.2736 27.38 48.1762 27.3689 48.085 27.3357C47.9939 27.3025 47.9115 27.2482 47.8442 27.1769C47.777 27.1056 47.7268 27.0194 47.6975 26.9249C47.6683 26.8305 47.6608 26.7304 47.6756 26.6324V10.255C47.6608 10.1571 47.6683 10.057 47.6975 9.9625C47.7268 9.86804 47.777 9.7818 47.8442 9.71054C47.9115 9.63928 47.9939 9.58494 48.085 9.55176C48.1762 9.51859 48.2736 9.50749 48.3697 9.51933H67.0795C67.177 9.50538 67.2763 9.51479 67.3697 9.54682C67.463 9.57886 67.5478 9.63264 67.6174 9.70395C67.687 9.77526 67.7396 9.86214 67.7708 9.95776C67.8021 10.0534 67.8113 10.1551 67.7977 10.255V14.8912L63.2286 16.6292H63.0358V14.2543C63.0358 14.0716 62.9539 13.9828 62.7949 13.9828H52.9339C52.8864 13.976 52.838 13.9825 52.7939 14.0016C52.7498 14.0207 52.7115 14.0518 52.6832 14.0914C52.6413 14.1629 52.6196 14.245 52.6206 14.3284V16.5552H60.7417V20.1842H53.9363L52.7893 17.0489Z" fill="#333333"/>
<path d="M85.8328 16.6291H85.6449V14.2296C85.6449 14.0666 85.5726 13.9827 85.428 13.9827H77.0996C76.1357 13.9827 75.4706 14.1851 75.0802 14.5949C74.6898 15.0047 74.4922 15.7552 74.4922 16.8513V19.8434C74.4922 20.905 74.685 21.6505 75.0657 22.085C75.4465 22.5195 76.126 22.7318 77.0996 22.7318H90.1416V27.368H76.6707C75.5507 27.3987 74.4339 27.2317 73.3692 26.8743C72.5345 26.5877 71.7791 26.1001 71.1666 25.4523C70.5937 24.8119 70.176 24.0423 69.9472 23.2058C69.6806 22.2542 69.5508 21.2679 69.5617 20.2779V16.6045C69.5508 15.6145 69.6806 14.6282 69.9472 13.6766C70.1781 12.8453 70.5957 12.081 71.1666 11.4449C71.7791 10.7971 72.5345 10.3094 73.3692 10.0229C74.4339 9.66548 75.5507 9.49847 76.6707 9.52914H89.7126C89.8087 9.51729 89.9061 9.52839 89.9973 9.56157C90.0884 9.59474 90.1708 9.64908 90.2381 9.72034C90.3053 9.7916 90.3555 9.87784 90.3848 9.97231C90.414 10.0668 90.4215 10.1669 90.4067 10.2648V14.9011L85.8328 16.6291Z" fill="#333333"/>
<path d="M20.3337 73.459H20.112V70.6496C20.112 70.462 20.0252 70.3632 19.8565 70.3632H10.1353C9.01712 70.3632 8.23151 70.6051 7.77365 71.0791C7.31578 71.5531 7.08926 72.4369 7.08926 73.7157V77.2114C7.08926 78.4491 7.31257 79.3213 7.75919 79.8282C8.20581 80.3351 8.99784 80.5886 10.1353 80.5886H25.3654V86.0198H9.65331C8.34464 86.0527 7.04025 85.8539 5.79759 85.4322C4.82354 85.0989 3.94234 84.5298 3.22872 83.7732C2.55261 83.0334 2.05712 82.14 1.78282 81.1663C1.47191 80.0541 1.32091 78.9014 1.33459 77.7447V73.4491C1.32091 72.2923 1.47191 71.1396 1.78282 70.0275C2.05712 69.0537 2.55261 68.1604 3.22872 67.4205C3.94234 66.664 4.82354 66.0949 5.79759 65.7615C7.04025 65.3399 8.34464 65.1411 9.65331 65.174H24.8641C24.9764 65.1594 25.0904 65.1719 25.1972 65.2104C25.3039 65.2489 25.4004 65.3124 25.479 65.3958C25.5576 65.4792 25.6162 65.5802 25.65 65.6908C25.6838 65.8015 25.692 65.9187 25.6738 66.0331V71.4643L20.3337 73.459Z" fill="#333333"/>
<path d="M33.6939 75.9474V85.9999H27.9392V66.0133C27.9392 65.4405 28.1995 65.1542 28.72 65.1542H44.6248C45.7136 65.1276 46.7994 65.2827 47.8396 65.6133C48.6306 65.8557 49.3486 66.3 49.9261 66.9045C50.5036 67.5091 50.9216 68.2541 51.141 69.0695C51.3931 69.9714 51.5149 70.9063 51.5025 71.8444V73.3256C51.5148 74.2458 51.393 75.1627 51.141 76.0461C50.9157 76.8114 50.5178 77.5116 49.9795 78.0902C49.406 78.6858 48.7022 79.1327 47.9263 79.3937C46.9324 79.724 45.8911 79.8793 44.8465 79.8529H43.5211C43.3091 79.8529 43.097 79.8529 42.8946 79.8232V80.0257C43.1356 80.2528 43.3766 80.5194 43.6175 80.786C43.8585 81.0526 44.0995 81.344 44.3164 81.6303L47.56 85.7827V86.0098H41.0776L33.8915 75.9474H33.6939ZM34.0891 70.3631C33.824 70.3631 33.6939 70.5261 33.6939 70.8569V75.4092H43.5934C44.1744 75.4638 44.7549 75.3006 45.2273 74.95C45.5502 74.6488 45.7093 74.0662 45.7093 73.2071V72.4912C45.7423 72.1949 45.7167 71.8948 45.6338 71.6089C45.551 71.323 45.4128 71.0571 45.2273 70.8273C44.7549 70.4766 44.1744 70.3135 43.5934 70.3681L34.0891 70.3631Z" fill="#333333"/>
<path d="M59.3586 73.9429H59.161V80.1887C59.1538 80.243 59.159 80.2982 59.1761 80.3501C59.1932 80.4019 59.2217 80.449 59.2595 80.4878C59.2973 80.5265 59.3433 80.5557 59.3939 80.5732C59.4445 80.5907 59.4984 80.596 59.5514 80.5887H76.7141V86.0198H54.2112C54.0989 86.0344 53.9849 86.0219 53.8782 85.9834C53.7714 85.9449 53.6749 85.8814 53.5963 85.798C53.5177 85.7146 53.4592 85.6136 53.4253 85.503C53.3915 85.3923 53.3834 85.2751 53.4015 85.1607V66.0134C53.3834 65.899 53.3915 65.7818 53.4253 65.6712C53.4592 65.5605 53.5177 65.4595 53.5963 65.3761C53.6749 65.2927 53.7714 65.2292 53.8782 65.1907C53.9849 65.1522 54.0989 65.1398 54.2112 65.1543H76.0731C76.187 65.1378 76.3031 65.1487 76.4121 65.1861C76.5212 65.2234 76.6203 65.2862 76.7016 65.3696C76.783 65.4529 76.8443 65.5544 76.8807 65.6661C76.9172 65.7779 76.9278 65.8967 76.9118 66.0134V71.4446L71.5716 73.4788H71.3451V70.699C71.3451 70.4917 71.2487 70.383 71.0655 70.383H59.4984C59.4433 70.3747 59.387 70.3823 59.3359 70.405C59.2848 70.4277 59.2409 70.4645 59.2092 70.5114C59.1618 70.5955 59.1369 70.6908 59.1369 70.7879V73.3899H68.6412V77.6312H60.6984L59.3586 73.9429Z" fill="#333333"/>
<path d="M111.965 65.174V65.4011L109.03 85.2199C109.017 85.4445 108.934 85.659 108.794 85.8321C108.607 85.9796 108.372 86.0469 108.138 86.0198H99.781C99.0741 86.0198 98.6644 85.7334 98.552 85.1606L95.4433 70.4521C95.4337 70.377 95.3963 70.3085 95.339 70.2608C95.2816 70.213 95.2086 70.1896 95.1349 70.1953H94.8842C94.677 70.1953 94.5565 70.2792 94.5179 70.4521L91.7804 85.1409C91.6711 85.7136 91.2615 86 90.5514 86H82.4303C82.198 86.0233 81.9662 85.9524 81.7844 85.8025C81.641 85.6338 81.5533 85.423 81.5338 85.2001L78.3191 65.3813V65.174H84.1027L86.5125 80.9737C86.5149 81.0268 86.5277 81.0787 86.5504 81.1265C86.5731 81.1743 86.605 81.2168 86.6443 81.2514C86.6835 81.2861 86.7293 81.3122 86.7787 81.3281C86.8282 81.344 86.8802 81.3494 86.9318 81.344H87.2113C87.3141 81.3484 87.4146 81.3125 87.4924 81.2438C87.5703 81.175 87.6197 81.0784 87.6307 80.9737L90.5224 65.9393C90.5292 65.8279 90.5589 65.7193 90.6096 65.6206C90.6603 65.5219 90.7308 65.4353 90.8164 65.3665C91.049 65.231 91.3162 65.1707 91.5828 65.1937H98.6291C98.8644 65.1625 99.1027 65.2213 99.2984 65.3588C99.494 65.4964 99.6333 65.7031 99.6894 65.9393L102.933 80.9737C102.991 81.2206 103.121 81.344 103.323 81.344H103.632C103.931 81.344 104.091 81.2206 104.114 80.9737L106.047 65.174H111.965Z" fill="#333333"/>
<path d="M28.45 34.873V35.115L17.7601 48.5398V57.1803H11.5813V48.4164L0.978027 35.115V34.873H8.0099L14.3815 43.0247L14.4827 43.1284C14.5116 43.163 14.5791 43.1778 14.6803 43.1778H14.8875C14.9456 43.178 15.0028 43.1642 15.0547 43.1377C15.1066 43.1111 15.1517 43.0724 15.1864 43.0247L21.4519 34.873H28.45Z" fill="#333333"/>
<path d="M54.5822 48.3226C54.5957 49.5613 54.4334 50.7954 54.1002 51.9862C53.8119 53.026 53.2885 53.9817 52.5724 54.7758C51.8109 55.5829 50.8724 56.1923 49.8348 56.5533C48.5101 57.0041 47.1191 57.2162 45.7237 57.1803H36.0362C34.636 57.2154 33.2404 57.0033 31.9105 56.5533C30.8671 56.196 29.9231 55.5863 29.1585 54.7758C28.4425 53.9817 27.9191 53.026 27.6307 51.9862C27.2975 50.7954 27.1352 49.5613 27.1487 48.3226V43.7308C27.1352 42.4921 27.2975 41.258 27.6307 40.0672C27.9191 39.0273 28.4425 38.0716 29.1585 37.2776C29.9231 36.4671 30.8671 35.8574 31.9105 35.5001C33.2404 35.0501 34.636 34.838 36.0362 34.873H45.7285C47.1239 34.8371 48.5149 35.0493 49.8396 35.5001C50.8772 35.8611 51.8157 36.4704 52.5772 37.2776C53.2933 38.0716 53.8167 39.0273 54.105 40.0672C54.4382 41.258 54.6005 42.4921 54.587 43.7308L54.5822 48.3226ZM33.3131 47.7745C33.2951 48.4049 33.3715 49.0343 33.5396 49.6409C33.6625 50.0722 33.9135 50.4536 34.2577 50.732C34.6417 51.0002 35.0831 51.1695 35.5446 51.2258C36.1919 51.3278 36.8465 51.374 37.5013 51.364H45.1598C45.7102 51.3798 46.2597 51.3082 46.7888 51.1517C47.1906 51.0295 47.5425 50.7764 47.7913 50.4309C48.0536 50.0214 48.2187 49.5547 48.2733 49.0681C48.3703 48.3666 48.4154 47.6585 48.4082 46.95V43.9875C48.4082 42.6149 48.1576 41.6752 47.6563 41.1683C47.1551 40.6614 46.3181 40.4046 45.1453 40.398H36.576C36.0252 40.3833 35.4756 40.4566 34.9469 40.6153C34.5452 40.7375 34.1932 40.9906 33.9444 41.3361C33.6837 41.741 33.5187 42.2025 33.4625 42.684C33.365 43.3789 33.3199 44.0805 33.3275 44.7825L33.3131 47.7745Z" fill="#333333"/>
<path d="M57.0066 34.873H63.1516V47.9572C63.1516 49.2278 63.4071 50.1165 63.918 50.6234C64.4288 51.1303 65.2514 51.3854 66.3856 51.3887H74.6128C75.7631 51.3887 76.5953 51.1287 77.1094 50.6086C77.6235 50.0885 77.8821 49.1833 77.8853 47.893V34.873H84.0497V48.3226C84.0654 49.5825 83.903 50.8381 83.5677 52.0503C83.2779 53.0871 82.7565 54.0405 82.0447 54.835C81.2876 55.641 80.3469 56.2417 79.3071 56.5829C77.9669 57.014 76.5665 57.2159 75.1622 57.1803H65.8603C64.4671 57.2149 63.0779 57.0131 61.7491 56.5829C60.7088 56.2428 59.7678 55.642 59.0116 54.835C58.297 54.0417 57.7738 53.088 57.4837 52.0503C57.1484 50.8381 56.9861 49.5825 57.0018 48.3226L57.0066 34.873Z" fill="#333333"/>
<path d="M92.8407 46.4117V57.1654H86.6812V35.7913C86.6812 35.1791 86.9607 34.873 87.5149 34.873H104.538C105.704 34.8465 106.866 35.0132 107.979 35.3667C108.838 35.6459 109.617 36.1357 110.249 36.7936C110.837 37.4315 111.268 38.2032 111.507 39.0451C111.778 40.0076 111.91 41.0058 111.898 42.0075V43.6023C111.911 44.5863 111.779 45.5667 111.507 46.5105C111.269 47.331 110.844 48.0822 110.269 48.7027C109.651 49.3369 108.896 49.8138 108.066 50.095C107.006 50.4509 105.894 50.618 104.779 50.5888H103.333C103.102 50.5888 102.88 50.5888 102.658 50.5592V50.7715C102.919 51.0183 103.179 51.2652 103.439 51.5812C103.699 51.8972 103.945 52.1836 104.186 52.4897L107.656 56.9334V57.1753H100.745L93.0334 46.4117H92.8407ZM93.26 40.4325C92.9804 40.4325 92.8407 40.6103 92.8407 40.9559V45.8291H103.444C104.067 45.8908 104.689 45.715 105.193 45.3354C105.545 45.0095 105.719 44.3874 105.719 43.469V42.7185C105.719 41.8594 105.545 41.2669 105.193 40.9411C104.688 40.5635 104.066 40.3879 103.444 40.4473L93.26 40.4325Z" fill="#333333"/>
<path d="M97.106 22.4751V17.0588L118.052 0.0789987L124.978 0L97.106 22.4751Z" fill="#4680FF"/>
<path d="M92.3682 9.59839H97.1059V22.4752L92.3538 26.119L92.3682 9.59839Z" fill="#4680FF"/>
<path d="M108.114 23.3096L101.087 23.5169L105.646 27.3681H112.509L108.114 23.3096Z" fill="#333333"/>
</g>
<defs>
<clipPath id="clip0_101_558">
<rect width="124" height="86" fill="white" transform="translate(0.978027)"/>
</clipPath>
</defs>
</svg>
