<svg width="161" height="112" viewBox="0 0 161 112" fill="none" xmlns="http://www.w3.org/2000/svg">
<g clip-path="url(#clip0_1201_718)">
<path d="M21.75 22.0807H21.5012V18.9942C21.5012 18.7846 21.4142 18.6767 21.2276 18.6767H10.4813C9.23756 18.6767 8.37935 18.9371 7.8694 19.4642C7.35945 19.9913 7.11691 20.9566 7.11691 22.3665V26.215C7.11691 27.5804 7.36567 28.5394 7.85696 29.0983C8.34825 29.6571 9.20646 29.9048 10.4813 29.9048H27.3097V35.8681H9.92786C8.48071 35.9069 7.03776 35.6921 5.66169 35.2331C4.58718 34.8629 3.61489 34.2358 2.82587 33.4041C2.08772 32.5893 1.5486 31.6079 1.25248 30.5399C0.908478 29.3159 0.740881 28.0472 0.75497 26.7739V22.0489C0.740881 20.7756 0.908478 19.5069 1.25248 18.2829C1.5477 17.2127 2.08687 16.229 2.82587 15.4124C3.61489 14.5806 4.58718 13.9535 5.66169 13.5834C7.03776 13.1243 8.48071 12.9095 9.92786 12.9483H26.75C26.8739 12.9331 26.9996 12.9473 27.1172 12.99C27.2349 13.0327 27.3412 13.1026 27.428 13.1942C27.5147 13.2859 27.5795 13.3968 27.6172 13.5183C27.655 13.6398 27.6647 13.7686 27.6455 13.8946V19.8579L21.75 22.0807Z" fill="#333333"/>
<path d="M36.7251 22.0807H36.5075V35.8936H30.1517V12.9357H36.5075V21.452H51.495V12.9357H57.9067V35.8936H51.495V27.0661H38.6094L36.7251 22.0807Z" fill="#333333"/>
<path d="M67.3532 22.6206H67.1356V29.4921C67.127 29.5522 67.1324 29.6135 67.1514 29.6711C67.1704 29.7287 67.2023 29.781 67.2447 29.8236C67.2871 29.8663 67.3387 29.8982 67.3953 29.9167C67.452 29.9352 67.5121 29.9399 67.5709 29.9303H86.5261V35.8936H61.6505C61.5266 35.9089 61.4009 35.8946 61.2833 35.8519C61.1656 35.8092 61.0593 35.7393 60.9725 35.6477C60.8858 35.556 60.821 35.4451 60.7833 35.3236C60.7455 35.2021 60.7358 35.0733 60.755 34.9474V13.8819C60.7358 13.756 60.7455 13.6272 60.7833 13.5057C60.821 13.3842 60.8858 13.2733 60.9725 13.1816C61.0593 13.09 61.1656 13.0201 61.2833 12.9774C61.4009 12.9347 61.5266 12.9204 61.6505 12.9357H85.7923C85.9181 12.9177 86.0462 12.9298 86.1667 12.971C86.2871 13.0122 86.3966 13.0814 86.4864 13.1731C86.5762 13.2649 86.6439 13.3766 86.6843 13.4996C86.7246 13.6226 86.7365 13.7535 86.7189 13.8819V19.8453L80.8234 22.0808H80.5746V19.026C80.5746 18.7911 80.4689 18.6768 80.2637 18.6768H67.5398C67.4786 18.668 67.4162 18.6764 67.3592 18.701C67.3023 18.7256 67.2529 18.7655 67.2164 18.8165C67.1623 18.9084 67.1343 19.014 67.1356 19.1213V21.9855H77.6144V26.6533H68.8333L67.3532 22.6206Z" fill="#333333"/>
<path d="M109.99 22.0807H109.748V18.9942C109.748 18.7846 109.654 18.6767 109.468 18.6767H98.7214C97.4776 18.6767 96.6194 18.9371 96.1157 19.4642C95.6119 19.9913 95.357 20.9566 95.357 22.3665V26.215C95.357 27.5804 95.6057 28.5394 96.097 29.0982C96.5883 29.6571 97.4652 29.9302 98.7214 29.9302H115.55V35.8935H98.1679C96.7228 35.933 95.2817 35.7182 93.908 35.2585C92.8309 34.8899 91.8563 34.2626 91.0659 33.4295C90.3267 32.6057 89.7877 31.6158 89.4925 30.5399C89.1485 29.3159 88.9809 28.0472 88.995 26.7739V22.0489C88.9809 20.7756 89.1485 19.5069 89.4925 18.2829C89.7904 17.2138 90.3292 16.2307 91.0659 15.4124C91.8563 14.5792 92.8309 13.952 93.908 13.5834C95.2817 13.1237 96.7228 12.9089 98.1679 12.9483H114.996C115.12 12.9331 115.246 12.9473 115.364 12.99C115.481 13.0327 115.587 13.1026 115.674 13.1942C115.761 13.2859 115.826 13.3968 115.863 13.5183C115.901 13.6398 115.911 13.7686 115.892 13.8946V19.8579L109.99 22.0807Z" fill="#333333"/>
<path d="M25.4751 95.1778H25.1891V91.5642C25.1891 91.3229 25.0771 91.1959 24.8595 91.1959H12.3159C10.8731 91.1959 9.85946 91.5071 9.26866 92.1167C8.67787 92.7264 8.38558 93.8632 8.38558 95.508V100.004C8.38558 101.596 8.67372 102.718 9.25001 103.37C9.82629 104.022 10.8483 104.348 12.3159 104.348H31.9677V111.334H11.694C10.0054 111.376 8.32235 111.121 6.71891 110.578C5.46208 110.15 4.32504 109.418 3.40424 108.444C2.53184 107.493 1.8925 106.344 1.53857 105.091C1.13739 103.661 0.942553 102.178 0.960207 100.69V95.1651C0.942553 93.6772 1.13739 92.1946 1.53857 90.764C1.8925 89.5116 2.53184 88.3625 3.40424 87.4108C4.32504 86.4377 5.46208 85.7058 6.71891 85.277C8.32235 84.7346 10.0054 84.4789 11.694 84.5213H31.3209C31.4658 84.5025 31.6129 84.5186 31.7506 84.5681C31.8884 84.6176 32.0129 84.6993 32.1143 84.8065C32.2157 84.9138 32.2913 85.0438 32.3349 85.1861C32.3785 85.3284 32.3891 85.4791 32.3657 85.6263V92.6121L25.4751 95.1778Z" fill="#333333"/>
<path d="M42.7139 98.3786V111.309H35.2886V85.6008C35.2886 84.8642 35.6244 84.4958 36.296 84.4958H56.8184C58.2233 84.4616 59.6243 84.6611 60.9664 85.0864C61.9872 85.3982 62.9136 85.9696 63.6587 86.7472C64.4039 87.5249 64.9433 88.4831 65.2264 89.532C65.5517 90.692 65.7088 91.8945 65.6928 93.1011V95.0063C65.7087 96.1899 65.5515 97.3693 65.2264 98.5056C64.9357 99.4899 64.4222 100.391 63.7276 101.135C62.9877 101.901 62.0795 102.476 61.0784 102.811C59.796 103.236 58.4523 103.436 57.1045 103.402H55.3943C55.1207 103.402 54.847 103.402 54.5858 103.364V103.624C54.8968 103.916 55.2077 104.259 55.5187 104.602C55.8296 104.945 56.1406 105.32 56.4204 105.688L60.6057 111.029V111.321H52.2413L42.9689 98.3786H42.7139ZM43.2239 91.1959C42.8819 91.1959 42.7139 91.4054 42.7139 91.8309V97.6863H55.4876C56.2372 97.7565 56.9862 97.5467 57.5958 97.0957C58.0125 96.7083 58.2177 95.9589 58.2177 94.8539V93.933C58.2603 93.5519 58.2272 93.1659 58.1204 92.7982C58.0135 92.4304 57.8351 92.0885 57.5958 91.7928C56.9862 91.3419 56.2372 91.132 55.4876 91.2022L43.2239 91.1959Z" fill="#333333"/>
<path d="M75.8296 95.8002H75.5746V103.834C75.5654 103.904 75.572 103.975 75.5941 104.041C75.6161 104.108 75.6529 104.169 75.7017 104.219C75.7504 104.268 75.8098 104.306 75.8751 104.328C75.9405 104.351 76.01 104.358 76.0783 104.348H98.2239V111.334H69.1878C69.0429 111.353 68.8958 111.337 68.758 111.287C68.6203 111.238 68.4958 111.156 68.3944 111.049C68.2929 110.942 68.2174 110.812 68.1738 110.669C68.1301 110.527 68.1196 110.376 68.143 110.229V85.6009C68.1196 85.4538 68.1301 85.303 68.1738 85.1607C68.2174 85.0184 68.2929 84.8885 68.3944 84.7812C68.4958 84.6739 68.6203 84.5923 68.758 84.5428C68.8958 84.4932 69.0429 84.4772 69.1878 84.4959H97.3967C97.5437 84.4747 97.6934 84.4887 97.8342 84.5368C97.9749 84.5848 98.1028 84.6656 98.2077 84.7728C98.3126 84.8799 98.3918 85.0105 98.4388 85.1542C98.4859 85.298 98.4996 85.4509 98.4788 85.6009V92.5868L91.5883 95.2033H91.296V91.6278C91.296 91.3611 91.1716 91.2214 90.9353 91.2214H76.0099C75.9388 91.2106 75.8662 91.2204 75.8003 91.2496C75.7344 91.2788 75.6777 91.3262 75.6368 91.3865C75.5757 91.4946 75.5435 91.6173 75.5435 91.7421V95.089H87.8072V100.544H77.5584L75.8296 95.8002Z" fill="#333333"/>
<path d="M143.709 84.5212V84.8134L139.922 110.305C139.905 110.594 139.798 110.87 139.617 111.093C139.376 111.282 139.073 111.369 138.771 111.334H127.988C127.075 111.334 126.547 110.966 126.402 110.229L122.391 91.3102C122.378 91.2136 122.33 91.1256 122.256 91.0642C122.182 91.0028 122.088 90.9726 121.993 90.9799H121.669C121.402 90.9799 121.246 91.0879 121.197 91.3102L117.664 110.204C117.523 110.94 116.995 111.309 116.078 111.309H105.6C105.3 111.339 105.001 111.247 104.766 111.055C104.581 110.838 104.468 110.566 104.443 110.28L100.295 84.788V84.5212H107.757L110.867 104.844C110.87 104.912 110.887 104.979 110.916 105.04C110.945 105.102 110.986 105.156 111.037 105.201C111.088 105.245 111.147 105.279 111.21 105.299C111.274 105.32 111.341 105.327 111.408 105.32H111.769C111.901 105.326 112.031 105.279 112.131 105.191C112.232 105.103 112.296 104.978 112.31 104.844L116.041 85.5056C116.05 85.3624 116.088 85.2228 116.153 85.0958C116.219 84.9688 116.31 84.8574 116.42 84.7689C116.72 84.5946 117.065 84.5171 117.409 84.5466H126.501C126.805 84.5065 127.112 84.5821 127.365 84.7591C127.617 84.936 127.797 85.2018 127.869 85.5056L132.055 104.844C132.129 105.161 132.297 105.32 132.558 105.32H132.956C133.342 105.32 133.549 105.161 133.578 104.844L136.072 84.5212H143.709Z" fill="#333333"/>
<path d="M35.9478 45.5468V45.8579L22.1542 63.1256V74.2394H14.1816V62.9669L0.5 45.8579V45.5468H9.57338L17.7948 56.0318L17.9254 56.1652C17.9627 56.2097 18.0498 56.2287 18.1803 56.2287H18.4478C18.5226 56.229 18.5965 56.2113 18.6635 56.1771C18.7304 56.1429 18.7886 56.0931 18.8333 56.0318L26.9179 45.5468H35.9478Z" fill="#333333"/>
<path d="M69.6667 62.8462C69.6842 64.4394 69.4747 66.0268 69.0448 67.5585C68.6728 68.896 67.9974 70.1253 67.0734 71.1466C66.0909 72.1848 64.8799 72.9686 63.5411 73.4329C61.8318 74.0128 60.037 74.2857 58.2364 74.2395H45.7364C43.9297 74.2845 42.129 74.0117 40.413 73.4329C39.0666 72.9734 37.8485 72.1891 36.862 71.1466C35.938 70.1253 35.2627 68.896 34.8906 67.5585C34.4607 66.0268 34.2512 64.4394 34.2687 62.8462V56.94C34.2512 55.3468 34.4607 53.7594 34.8906 52.2278C35.2627 50.8902 35.938 49.6609 36.862 48.6396C37.8485 47.5971 39.0666 46.8129 40.413 46.3533C42.129 45.7745 43.9297 45.5017 45.7364 45.5468H58.2426C60.0432 45.5006 61.838 45.7734 63.5473 46.3533C64.8861 46.8176 66.0971 47.6014 67.0797 48.6396C68.0036 49.6609 68.679 50.8902 69.0511 52.2278C69.4809 53.7594 69.6904 55.3468 69.6729 56.94L69.6667 62.8462ZM42.2227 62.1413C42.1995 62.952 42.298 63.7616 42.515 64.5419C42.6736 65.0966 42.9974 65.5872 43.4416 65.9454C43.9371 66.2902 44.5066 66.5081 45.102 66.5805C45.9373 66.7116 46.7819 66.7711 47.6269 66.7583H57.5088C58.219 66.7786 58.9281 66.6864 59.6108 66.4852C60.1292 66.3279 60.5833 66.0024 60.9043 65.558C61.2428 65.0313 61.4558 64.431 61.5262 63.8052C61.6514 62.9028 61.7096 61.992 61.7003 61.0807V57.2703C61.7003 55.5047 61.3769 54.296 60.7302 53.644C60.0834 52.992 59.0034 52.6617 57.4901 52.6533H46.4329C45.7223 52.6343 45.0131 52.7286 44.3309 52.9327C43.8125 53.09 43.3584 53.4155 43.0374 53.8599C42.7009 54.3806 42.488 54.9742 42.4155 55.5937C42.2897 56.4875 42.2315 57.3898 42.2413 58.2927L42.2227 62.1413Z" fill="#333333"/>
<path d="M72.7948 45.5468H80.7239V62.3762C80.7239 64.0105 81.0535 65.1536 81.7127 65.8056C82.3719 66.4576 83.4333 66.7858 84.8968 66.79H95.5124C96.9967 66.79 98.0705 66.4555 98.7338 65.7866C99.3972 65.1176 99.7309 63.9533 99.7351 62.2937V45.5468H107.689V62.8462C107.709 64.4667 107.5 66.0817 107.067 67.641C106.693 68.9745 106.02 70.2008 105.102 71.2228C104.125 72.2595 102.911 73.0321 101.57 73.471C99.8404 74.0255 98.0334 74.2851 96.2214 74.2394H84.2189C82.4213 74.284 80.6288 74.0243 78.9142 73.471C77.5718 73.0335 76.3577 72.2608 75.3819 71.2228C74.4599 70.2024 73.7847 68.9758 73.4105 67.641C72.9778 66.0817 72.7684 64.4667 72.7886 62.8462L72.7948 45.5468Z" fill="#333333"/>
<path d="M119.032 60.3884V74.2204H111.085V46.728C111.085 45.9405 111.445 45.5467 112.16 45.5467H134.126C135.63 45.5126 137.129 45.7271 138.566 46.1818C139.674 46.5409 140.68 47.1709 141.495 48.0172C142.253 48.8377 142.809 49.8302 143.118 50.9131C143.468 52.1511 143.638 53.435 143.622 54.7236V56.7748C143.639 58.0405 143.469 59.3015 143.118 60.5154C142.81 61.5708 142.263 62.537 141.52 63.3352C140.723 64.1509 139.749 64.7643 138.678 65.1261C137.31 65.5839 135.875 65.7987 134.437 65.7612H132.571C132.272 65.7612 131.986 65.7612 131.7 65.7231V65.9961C132.036 66.3137 132.372 66.6312 132.708 67.0377C133.043 67.4441 133.361 67.8124 133.672 68.2062L138.149 73.9219V74.2331H129.231L119.281 60.3884H119.032ZM119.573 52.6977C119.213 52.6977 119.032 52.9263 119.032 53.3708V59.639H132.714C133.517 59.7184 134.321 59.4923 134.971 59.004C135.425 58.5848 135.649 57.7846 135.649 56.6034V55.6381C135.649 54.533 135.425 53.7709 134.971 53.3518C134.32 52.8662 133.517 52.6403 132.714 52.7167L119.573 52.6977Z" fill="#333333"/>
<path d="M124.536 29.6V22.6332L151.563 0.793018L160.5 0.691406L124.536 29.6Z" fill="#4680FF"/>
<path d="M118.423 13.0372H124.536V29.6L118.404 34.2868L118.423 13.0372Z" fill="#4680FF"/>
<path d="M138.74 30.6732L129.673 30.94L135.556 35.8935H144.412L138.74 30.6732Z" fill="#333333"/>
</g>
<defs>
<clipPath id="clip0_1201_718">
<rect width="160" height="110.617" fill="white" transform="translate(0.5 0.691406)"/>
</clipPath>
</defs>
</svg>
